# xmcd
# 
# Track frame offsets:
#     150
#     47310
#     105407
#     152402
#     214630
# 
# Disc length: 3305
# 
# Revision: 1
# Processed by: cddbd v1.5.2PL0 Copyright (c) Steve Scherf et al.
# Submitted via: BonkEnc v1.0.8
# 
DISCID=2d0ce705
DTITLE=Jazzmob - The Truth
DYEAR=1999
DGENRE=Contemporary Jazz
TTITLE0=Astral Flight
TTITLE1=Aurora
TTITLE2=Flashback
TTITLE3=Pote og Klov
TTITLE4=Baking Soda
EXTD=YEAR: 1999
EXTT0=
EXTT1=
EXTT2=
EXTT3=
EXTT4=
PLAYORDER=
